<svg width="60" height="60" viewBox="0 0 60 60" fill="none" xmlns="http://www.w3.org/2000/svg">
<path d="M17.5 35C16.125 35 14.9479 34.5104 13.9688 33.5312C12.9896 32.5521 12.5 31.375 12.5 30C12.5 28.625 12.9896 27.4479 13.9688 26.4688C14.9479 25.4896 16.125 25 17.5 25C18.875 25 20.0521 25.4896 21.0312 26.4688C22.0104 27.4479 22.5 28.625 22.5 30C22.5 31.375 22.0104 32.5521 21.0312 33.5312C20.0521 34.5104 18.875 35 17.5 35ZM17.5 45C13.3333 45 9.79167 43.5417 6.875 40.625C3.95833 37.7083 2.5 34.1667 2.5 30C2.5 25.8333 3.95833 22.2917 6.875 19.375C9.79167 16.4583 13.3333 15 17.5 15C20.2917 15 22.8229 15.6875 25.0938 17.0625C27.3646 18.4375 29.1667 20.25 30.5 22.5H52.5L60 30L48.75 41.25L43.75 37.5L38.75 41.25L33.4375 37.5H30.5C29.1667 39.75 27.3646 41.5625 25.0938 42.9375C22.8229 44.3125 20.2917 45 17.5 45ZM17.5 40C19.8333 40 21.8854 39.2917 23.6562 37.875C25.4271 36.4583 26.6042 34.6667 27.1875 32.5H35L38.625 35.0625L43.75 31.25L48.1875 34.6875L52.875 30L50.375 27.5H27.1875C26.6042 25.3333 25.4271 23.5417 23.6562 22.125C21.8854 20.7083 19.8333 20 17.5 20C14.75 20 12.3958 20.9792 10.4375 22.9375C8.47917 24.8958 7.5 27.25 7.5 30C7.5 32.75 8.47917 35.1042 10.4375 37.0625C12.3958 39.0208 14.75 40 17.5 40Z" fill="#E3E3E3"/>
</svg>
