<svg width="24" height="24" viewBox="0 0 24 24" fill="none" xmlns="http://www.w3.org/2000/svg">
<path d="M7 14C6.45 14 5.97916 13.8042 5.58752 13.4125C5.19584 13.0208 5 12.55 5 12C5 11.45 5.19584 10.9792 5.58752 10.5875C5.97916 10.1958 6.45 10 7 10C7.55 10 8.02084 10.1958 8.41248 10.5875C8.80416 10.9792 9 11.45 9 12C9 12.55 8.80416 13.0208 8.41248 13.4125C8.02084 13.8042 7.55 14 7 14ZM7 18C5.33332 18 3.91667 17.4167 2.75 16.25C1.58333 15.0833 1 13.6667 1 12C1 10.3333 1.58333 8.91668 2.75 7.75C3.91667 6.58332 5.33332 6 7 6C8.11668 6 9.12916 6.275 10.0375 6.825C10.9458 7.375 11.6667 8.1 12.2 9H21L24 12L19.5 16.5L17.5 15L15.5 16.5L13.375 15H12.2C11.6667 15.9 10.9458 16.625 10.0375 17.175C9.12916 17.725 8.11668 18 7 18ZM7 16C7.93332 16 8.75416 15.7167 9.46248 15.15C10.1708 14.5833 10.6417 13.8667 10.875 13H14L15.45 14.025L17.5 12.5L19.275 13.875L21.15 12L20.15 11H10.875C10.6417 10.1333 10.1708 9.41668 9.46248 8.85C8.75416 8.28332 7.93332 8 7 8C5.9 8 4.95832 8.39168 4.175 9.175C3.39167 9.95832 3 10.9 3 12C3 13.1 3.39167 14.0417 4.175 14.825C4.95832 15.6083 5.9 16 7 16Z" fill="black"/>
</svg>
